<svg version="1.1" id="Layer_1" xmlns="http://www.w3.org/2000/svg" x="0" y="0" viewBox="0 0 468 468" style="enable-background:new 0 0 468 468" xml:space="preserve"><style>.st3{fill:#0a389e}.st4{fill:#00d1d9}.st8{opacity:.5}.st9{fill:#3468f6}.st10{opacity:.6}</style><g style="enable-background:new"><g class="st8"><path class="st9" d="m310.6 195-48.1-39.7 151.9-19.5 48.2 39.7z"/></g><g class="st10"><path class="st9" d="m200.3 468.9-48.2-39.7 4.4-155.4 48.2 39.7z"/></g><g class="st10"><path class="st9" d="m207.6 208.2-48.1-39.7 4.4-155.4L212 52.8z"/></g><path class="st9" d="m212 52.8-48.1-39.7 103-13.2L315 39.6z" style="opacity:.8"/><path class="st9" d="M315 39.6 310.6 195l152-19.5-3 105.4-151.9 19.4-4.4 155.4-103 13.2 4.4-155.4-152 19.5 3-105.4 151.9-19.4L212 52.8z"/><path class="st9" d="M52.7 333 4.5 293.2l3-105.3 48.2 39.7z" style="opacity:.45"/><g class="st8"><path class="st9" d="M55.7 227.6 7.5 187.9l152-19.4 48.1 39.7z"/></g></g></svg>